<?xml version="1.0" encoding="UTF-8" standalone="no"?>
<!-- Created with Inkscape (http://www.inkscape.org/) -->

<svg
   width="200.96129mm"
   height="57.870064mm"
   viewBox="0 0 200.96129 57.870064"
   version="1.1"
   id="svg1"
   xml:space="preserve"
   inkscape:version="1.4.4 (dcaf3e7, 2026-05-05)"
   sodipodi:docname="spoiler_esperado_logo - Copia.svg"
   xmlns:inkscape="http://www.inkscape.org/namespaces/inkscape"
   xmlns:sodipodi="http://sodipodi.sourceforge.net/DTD/sodipodi-0.dtd"
   xmlns="http://www.w3.org/2000/svg"
   xmlns:svg="http://www.w3.org/2000/svg"><sodipodi:namedview
     id="namedview1"
     pagecolor="#505050"
     bordercolor="#eeeeee"
     borderopacity="1"
     inkscape:showpageshadow="0"
     inkscape:pageopacity="0"
     inkscape:pagecheckerboard="0"
     inkscape:deskcolor="#505050"
     inkscape:document-units="mm"
     inkscape:zoom="0.65477695"
     inkscape:cx="67.962075"
     inkscape:cy="391.73645"
     inkscape:window-width="1920"
     inkscape:window-height="974"
     inkscape:window-x="-11"
     inkscape:window-y="-11"
     inkscape:window-maximized="1"
     inkscape:current-layer="layer1"><inkscape:page
       x="7.7753988e-40"
       y="0"
       width="200.96129"
       height="57.870064"
       id="page2"
       margin="0"
       bleed="0" /></sodipodi:namedview><defs
     id="defs1"><rect
       x="197.77727"
       y="15.654186"
       width="488.33423"
       height="136.30595"
       id="rect2-3-4" /><rect
       x="-172.78722"
       y="-6.4795203"
       width="577.75726"
       height="392.01099"
       id="rect3-7-9" /></defs><g
     inkscape:label="Camada 1"
     inkscape:groupmode="layer"
     id="layer1"
     style="display:inline"
     transform="translate(-6.6578434,-12.712404)"><g
       id="g46"
       inkscape:label="light_mode_1"
       transform="matrix(0.87534941,0,0,0.85404542,-37.392558,-62.241914)"
       inkscape:export-filename="Logotipo_Logo_ModoClaro.svg"
       inkscape:export-xdpi="96"
       inkscape:export-ydpi="96"><path
         id="path42"
         style="display:inline;fill:#2a587d;fill-opacity:1;stroke:#162745;stroke-width:2;stroke-dasharray:none;stroke-opacity:1"
         inkscape:label="capa"
         d="m 77.060971,97.448831 c -8.271865,-0.40283 -20.218404,3.977019 -20.218404,3.977019 -0.942641,0.29117 -1.827009,0.71934 -1.932182,1.84382 l -3.573426,45.0174 c -0.111875,1.40931 0.512697,1.59132 1.74563,1.59732 1.232933,0.006 10.596785,-1.56347 18.811772,-1.78232 4.667134,-0.12434 10.604536,0.67944 12.998173,1.03043 0.39493,0.0579 -0.29836,3.59382 0.535368,4.14548 1.927293,1.27523 5.592101,1.22732 6.318478,1.22732 0.726378,0 4.391702,0.0479 6.318994,-1.22732 0.833727,-0.55166 0.140438,-4.08757 0.535368,-4.14548 2.393638,-0.35099 8.331028,-1.15477 12.998168,-1.03043 8.21499,0.21885 17.57832,1.78876 18.81126,1.78232 1.23293,-0.006 1.85803,-0.18801 1.74615,-1.59732 l -3.57394,-45.0174 c -0.10518,-1.12448 -0.98903,-1.55265 -1.93167,-1.84382 0,0 -11.94705,-4.379849 -20.21892,-3.977019 -8.27187,0.40284 -14.454934,5.802749 -14.454934,5.802749 -0.10999,0.0208 -0.202904,0.0901 -0.202054,0.20205 0,0 -0.0118,3.0853 -0.02842,7.80005 -0.01662,-4.71475 -0.02791,-7.80005 -0.02791,-7.80005 8.47e-4,-0.11192 -0.09207,-0.18126 -0.202055,-0.20205 0,0 -6.183583,-5.399909 -14.455448,-5.802749 z"
         sodipodi:nodetypes="sccccsssssssccccscccccss" /><path
         id="path43"
         style="display:inline;fill:#b89764;fill-opacity:1;stroke:#162745;stroke-width:1.97824;stroke-linecap:round;stroke-linejoin:round;stroke-dasharray:none;stroke-opacity:1"
         d="m 60.477956,96.532971 c 0,0 12.315386,-3.19446 20.425802,-2.79249 8.110415,0.40196 9.938811,9.671029 9.938811,9.671029 0.107836,0.0207 0.199015,0.0899 0.198098,0.2016 -0.01187,1.44651 0.652017,29.79878 0.623152,43.27393 0,0 -8.827348,-4.33735 -16.098602,-4.14021 -8.054647,0.21838 -16.444249,2.26361 -17.653118,2.25719 -1.208868,-0.006 -1.785361,-0.18524 -1.711684,-1.59393 l 2.38324,-45.566639 c 0.04761,-0.91032 0.08286,-0.895883 1.894301,-1.31048 z"
         sodipodi:nodetypes="szsscszsss"
         inkscape:label="meio" /><path
         id="path44"
         style="display:inline;fill:#e4d0b1;fill-opacity:1;stroke:#162745;stroke-width:2;stroke-linecap:round;stroke-linejoin:round;stroke-dasharray:none;stroke-opacity:1"
         d="m 69.463749,90.518721 c 4.553933,-1.53939 6.933606,-2.5797 12.252762,-0.89829 5.319155,1.68141 6.371689,7.43347 9.862999,12.850699 0,0 0.681683,42.44109 0.06407,44.46554 0,0 -4.420751,-8.01434 -13.074857,-9.50454 -4.214502,-0.72572 -8.194859,1.06734 -11.830584,1.62167 -2.679926,0.40861 -5.727159,-0.24727 -5.696075,-1.07151 l 1.748797,-46.901809 c 0.01567,-0.42014 2.118955,0.97764 6.672888,-0.56176 z"
         sodipodi:nodetypes="zzsssscsz"
         inkscape:label="topo" /><path
         id="path45"
         style="display:inline;fill:#b89764;fill-opacity:1;stroke:#162745;stroke-width:1.97824;stroke-linecap:round;stroke-linejoin:round;stroke-dasharray:none;stroke-opacity:1"
         d="m 123.01512,96.003801 c 0,0 -12.3154,-2.66529 -20.42581,-2.26332 -8.110417,0.40196 -9.938807,9.671029 -9.938807,9.671029 -0.10784,0.0207 -0.19902,0.0899 -0.1981,0.2016 0.0119,1.44651 -0.848461,29.76306 -0.819581,43.23821 0,0 9.023788,-4.30163 16.295038,-4.10449 8.05465,0.21838 16.44425,2.26361 17.65312,2.25718 1.20887,-0.006 1.78537,-0.18523 1.71169,-1.59392 l -2.38324,-45.566639 c -0.0589,-1.12535 -0.97007,-1.54911 -1.89431,-1.83965 z"
         sodipodi:nodetypes="szsscszsss"
         inkscape:label="meio" /><path
         id="path46"
         style="display:inline;fill:#e4d0b1;fill-opacity:1;stroke:#162745;stroke-width:2;stroke-linecap:round;stroke-linejoin:round;stroke-dasharray:none;stroke-opacity:1"
         d="m 114.02932,90.518721 c -4.55394,-1.53939 -6.93361,-2.5797 -12.25276,-0.89829 -5.319157,1.68141 -6.544207,7.470061 -10.035517,12.887289 0,0 -0.705606,42.38664 -0.088,44.41108 0,0 4.617196,-7.99647 13.271297,-9.48667 4.2145,-0.72572 8.19486,1.06734 11.83059,1.62167 2.67993,0.40861 5.72716,-0.24727 5.69608,-1.07151 l -1.7488,-46.901809 c -0.0157,-0.42014 -2.11895,0.97764 -6.67289,-0.56176 z"
         sodipodi:nodetypes="zzsssscsz"
         inkscape:label="topo" /></g><g
       id="g50"
       style="display:inline"
       inkscape:label="olho_light_mode_1"
       transform="matrix(0.87534941,0,0,0.85404542,-38.105877,-24.595748)"><path
         style="fill:#b89764;fill-opacity:1;stroke:#162745;stroke-width:2.2;stroke-linecap:round;stroke-linejoin:round;stroke-dasharray:none;stroke-opacity:1"
         d="m 83.188312,78.45315 c 0,0 -4.530581,5.812502 -4.401357,5.792693"
         id="path47"
         inkscape:label="cilio esquerda"
         sodipodi:nodetypes="cc" /><path
         style="fill:#e4d0b1;fill-opacity:1;stroke:#162745;stroke-width:2.2;stroke-linecap:round;stroke-linejoin:round;stroke-dasharray:none;stroke-opacity:1"
         d="m 96.413792,80.682065 2.154576,7.19474"
         id="path48"
         inkscape:label="cilio meio" /><path
         style="display:inline;fill:#e4d0b1;fill-opacity:1;stroke:#162745;stroke-width:2.2;stroke-linecap:round;stroke-linejoin:round;stroke-dasharray:none;stroke-opacity:1"
         d="m 87.543838,80.709616 -2.322512,7.139638"
         id="path48-2"
         inkscape:label="cilio meio" /><path
         style="fill:#b89764;fill-opacity:1;stroke:#162745;stroke-width:2.2;stroke-linecap:round;stroke-linejoin:round;stroke-dasharray:none;stroke-opacity:1"
         d="m 101.32903,78.851819 4.70304,4.982654"
         id="path49"
         sodipodi:nodetypes="cc"
         inkscape:label="cilio direita" /><path
         id="path50"
         style="display:inline;fill:#fcf4e9;fill-opacity:1;stroke:#162745;stroke-width:2;stroke-linecap:round;stroke-linejoin:round;stroke-dasharray:none;stroke-opacity:1"
         d="m 91.783169,64.801002 c 7.871097,-0.148533 15.393351,8.381106 15.393351,8.381106 0,0 -8.008718,9.056706 -15.272462,9.102605 -7.483317,0.04729 -14.724466,-8.539811 -14.724466,-8.539811 0,0 6.73248,-8.795368 14.603577,-8.9439 z"
         sodipodi:nodetypes="zcscz"
         inkscape:label="olho" /><ellipse
         style="display:inline;fill:#162745;fill-opacity:1;stroke:#2a587d;stroke-width:3.58739;stroke-linecap:round;stroke-linejoin:round;stroke-dasharray:none;stroke-opacity:1"
         id="ellipse50"
         cx="92.115387"
         cy="73.490524"
         rx="5.152957"
         ry="5.055469"
         inkscape:label="iris e pupila" /><circle
         style="display:inline;fill:#fcf4e9;fill-opacity:1;stroke:none;stroke-width:7.65051;stroke-linecap:round;stroke-linejoin:round;stroke-dasharray:none;stroke-opacity:1"
         id="circle50"
         cx="95.262238"
         cy="71.320412"
         r="1.9951531"
         inkscape:label="brilho" /></g><text
       xml:space="preserve"
       transform="matrix(0.58037261,0,0,0.54092357,-26.670512,-8.415737)"
       id="text1-7-6"
       style="font-style:normal;font-variant:normal;font-weight:bold;font-stretch:normal;font-size:96px;font-family:'Amatic SC';-inkscape-font-specification:'Amatic SC Bold';letter-spacing:-1.74px;writing-mode:lr-tb;direction:ltr;white-space:pre;shape-inside:url(#rect2-3-4);display:inline;fill:#fcf4e9;fill-opacity:1;stroke:#fcf4e9;stroke-width:2.39244;stroke-linecap:round;stroke-linejoin:round;stroke-dasharray:none;stroke-opacity:1"><tspan
         x="197.77734"
         y="105.00243"
         id="tspan1">sp    iler</tspan></text><path
       d="m 115.89514,32.0001 c 0.005,-1.28153 0.30228,-1.378926 0.8918,-2.458584 0.55508,-1.079944 1.31597,-1.961045 2.28264,-2.643344 2.10564,-1.412476 4.39852,-2.281256 6.87861,-2.606336 2.34276,-0.424746 4.59861,-0.628401 6.76748,-0.61094 0.41311,0.0042 0.7573,0.03071 1.03252,0.08228 l 0.92954,0.0082 c 0.17214,0.0014 0.25829,-0.02252 0.25848,-0.07185 l 0.92952,0.0082 3.61453,0.102972 c 1.10147,0.05814 2.85648,0.269445 5.26502,0.633889 1.6515,0.259742 3.25011,0.839464 4.79585,1.739133 0.6872,0.350565 1.20184,0.798341 1.54397,1.343287 0.37659,0.545235 0.56352,1.162869 0.5608,1.852945 -0.009,1.971569 -0.27291,2.660724 -0.79553,4.233826 -0.48814,1.57337 -0.87173,1.456016 -1.77109,2.533177 -0.86455,0.978866 -1.75415,1.549704 -3.03065,2.229506 -1.24207,0.680068 -3.06055,0.697016 -4.47322,0.981382 -1.4471,0.284101 -2.97968,0.419632 -4.59773,0.406614 l -0.41312,-0.0042 c -1.06723,-0.0082 -2.03127,0.0082 -2.89216,0.05057 l -2.94377,0.05014 c -9.91494,-0.07983 -14.85945,-1.255717 -14.83349,-7.860497 z m 2.17003,-0.278287 c -0.005,0.887223 0.23432,1.702431 0.71339,2.44565 0.51349,0.743501 1.19982,1.315878 2.05894,1.717105 1.75208,0.950637 3.64337,1.532715 5.67372,1.746216 1.75483,0.260582 3.26914,0.396009 4.54291,0.406265 1.54923,0.01229 3.58109,-0.143699 6.0956,-0.468492 2.65203,-0.274397 4.63216,-0.406325 5.94037,-0.395784 l 0.92954,0.0082 c 1.30861,-0.08801 2.44723,-0.719653 3.41582,-1.894846 0.9684,-1.125899 1.45588,-2.526769 1.46247,-4.202588 0.006,-1.675841 -0.6604,-2.790277 -2.00089,-3.343268 -1.06531,-0.501469 -2.44142,-0.759019 -4.12832,-0.772589 -0.65413,-0.0061 -1.20506,0.01434 -1.65279,0.0606 l -1.39428,-0.01022 -2.3749,-0.167033 c -0.72257,-0.10441 -1.51419,-0.160072 -2.37487,-0.167033 -1.85906,-0.01432 -3.70116,0.04422 -5.52638,0.177269 -2.58279,0.176448 -5.09791,0.649036 -7.5453,1.417984 -2.55068,0.768127 -3.82901,1.916175 -3.83503,3.444141 z"
       id="text1-2-3-4"
       style="font-weight:bold;font-size:96px;font-family:'Amatic SC';-inkscape-font-specification:'Amatic SC Bold';white-space:pre;fill:#e4d0b1;fill-opacity:1;stroke:#e4d0b1;stroke-width:1.5399;stroke-linecap:round;stroke-linejoin:round;stroke-opacity:1"
       aria-label="o"
       sodipodi:nodetypes="scccscsccccccsccccssccsscccscsccscscccsccscc" /><text
       xml:space="preserve"
       transform="matrix(0.40029607,0,0,0.27220433,170.338,47.134185)"
       id="text2-1-5"
       style="font-style:normal;font-variant:normal;font-weight:bold;font-stretch:normal;font-size:96px;font-family:'Amatic SC';-inkscape-font-specification:'Amatic SC Bold';writing-mode:lr-tb;direction:ltr;white-space:pre;shape-inside:url(#rect3-7-9);display:inline;fill:#e4d0b1;fill-opacity:1;stroke:#e4d0b1;stroke-width:2.39244;stroke-linecap:round;stroke-linejoin:round;stroke-dasharray:none;stroke-opacity:1"><tspan
         x="-172.78711"
         y="82.867668"
         id="tspan2">esperado</tspan></text><path
       style="display:inline;fill:#fcf4e9;fill-opacity:1;stroke:#fcf4e9;stroke-width:3.02593;stroke-linecap:round;stroke-linejoin:round;stroke-dasharray:none;stroke-opacity:1"
       d="m 195.28786,59.749096 10.2369,-2.563676"
       id="path5-8" /><path
       style="display:inline;fill:#fcf4e9;fill-opacity:1;stroke:#fcf4e9;stroke-width:3.02593;stroke-linecap:round;stroke-linejoin:round;stroke-dasharray:none;stroke-opacity:1"
       d="m 195.13188,65.144572 10.22641,2.561059"
       id="path6-4" /><path
       style="display:inline;fill:#fcf4e9;fill-opacity:1;stroke:#fcf4e9;stroke-width:3.02593;stroke-linecap:round;stroke-linejoin:round;stroke-dasharray:none;stroke-opacity:1"
       d="M 99.539023,59.891606 89.302132,57.327931"
       id="path5-0-0" /><path
       style="display:inline;fill:#fcf4e9;fill-opacity:1;stroke:#fcf4e9;stroke-width:3.02593;stroke-linecap:round;stroke-linejoin:round;stroke-dasharray:none;stroke-opacity:1"
       d="M 99.695023,65.287087 89.468588,67.848136"
       id="path6-2-7" /></g></svg>
